<svg version="1.2" xmlns="http://www.w3.org/2000/svg" viewBox="0 0 1024 1024" width="1024" height="1024">
	<style>
		.s0 {
			fill: #000000;
		}
		@media (prefers-color-scheme: dark) {
			.s0 {
				fill: #ffffff;
			} 
		}
	</style>
	<path class="s0" d="m435 957.7c-7-1-17.1-2.8-22.5-4.2-5.4-1.2-16-3.7-23.7-5.4-18.4-4-43.6-12.6-51.1-17.4-12.8-7.9-25.1-22.3-32.9-38.2-6.7-14.3-9-29.9-9.9-72-3-131-5.1-165.2-10.9-188.9-4.4-17.5-22.1-56.1-29.6-64.3-7-8-10.8-9-90.9-26.7-27-5.9-41.4-10.2-56.7-17.1-14.5-6.6-33.3-26.3-41.8-43.5-6.9-14.1-10.8-24.5-14.6-38.6-1.3-5.2-3.4-13.6-4.8-18.7-1.3-5.3-3.3-12.5-4.3-16.2-3.6-12.5-6.6-29.1-7.5-41.3-2.1-25.6 0.1-78.9 3.7-94.5 1.1-4 2.9-11.8 4.1-17.2 6-26.6 18.4-54 36.6-80.9 21.7-32.5 49.6-54.6 82.8-65.4 9.3-3.1 18.9-6.4 21.3-7.5 2.5-1.2 9.6-3.9 15.7-6 29-10.3 46.7-13.6 94.5-18.1 13.7-1.2 29.6-2.9 35.3-3.6 37-4.8 246.1-7 314.9-3.3 19.9 1 55.7 2.8 79.6 4 24 1.4 49.9 3 57.7 4 7.8 0.8 22.4 2 32.3 2.8 26.2 1.8 68.4 7.8 81.7 11.5 32.7 9.3 43.7 14.9 54.6 27.3 1.8 2 3.9 4.4 4.7 5.3 5.1 5.6 10.6 15.7 15.1 27.9 2 5.4 4.2 11.1 5 12.7 1.5 3.5 4.8 16.7 8.4 34.5 1.3 6.6 3.1 14.9 3.9 18.5 7.8 35.1 9 57.9 4.3 82-1.6 9.2-3.7 20.3-4.6 24.8-2.1 12.1-7.2 32.2-10.7 41.8-1.5 4.7-3.3 9.8-3.7 11.3-1.2 3.6-30 60.3-35.4 69.9-2.3 3.7-5 8.8-6.2 11.2-10 20-21.6 38-29.8 46.2-7.2 7.2-24.9 13.7-42.8 15.5-13.9 1.3-49.9 8.4-61 11.8-3.3 1.1-10.1 3-15 4.5-5 1.5-11.7 3.5-15 4.5-3.3 1.1-13.1 4.1-21.8 6.8-18.9 5.7-40.6 14.5-42.9 17.4-1.9 2.4-3.3 16.5-5.1 55.6-1.6 33.2-2.7 44-11.2 111.5-2.1 16.6-4.8 39-6.3 54.7-1.4 12.9-8.3 30.8-18.3 47.3-1.7 2.8-3.6 6.3-4.2 7.5-2.4 5.5-56 75-62.6 81.4-9 8.7-25.8 17.1-48.1 24-22.1 6.9-36.8 9.8-59.7 11.6-23.7 1.8-34.2 1.6-50.6-0.8zm162.3-111.9c14-3.6 30.5-11.3 37.8-18 3.2-2.7 10.7-12.4 17-21.8l11.4-17.2 2.7-22.8c1.5-12.6 3.7-30.1 4.9-39.3 2.3-16.3 5.4-43.9 8.4-71.4 0.8-7.8 2.1-29.4 3-48 0.9-18.4 2-34.6 2.4-35.8 0.5-1.2 1.5-18.8 2.3-39 1.2-33.9 3.6-55.5 7-64.7 8.4-21.3 13.1-28.2 24.9-36.9 17.6-13 40.5-20.7 68-22.8 9.1-0.7 19-2.1 21.7-3 2.7-0.7 11.4-2.5 19.2-3.9 15.8-2.7 35.1-7.6 62.3-15.7 9.1-2.7 16.9-5.9 25.6-10.7 39.3-21.3 54-41.4 60.9-83.1 4.2-24.7 3.3-32.1-12.9-107.2-5.8-27.5-16.5-48.9-30.1-61-8.1-7.3-13.5-9.8-29.3-14.6-4.5-1.4-11.2-3.3-15-4.5-3.7-1.1-15.1-3.2-25.5-4.5-10.3-1.5-28.5-4.1-40.5-5.7-12-1.8-23.4-3.2-25.5-3.2-2.1 0.2-15.6-0.7-30-1.9-14.4-1.1-43.5-2.7-64.5-3.6-21-0.9-57.7-2.7-81.7-4-34.4-1.9-60-2.2-122.3-1.4-126.4 1.5-166.9 3.6-216 10.8-54.7 8.2-70.3 14.1-90.3 34.6-20.2 20.6-32.4 37.7-38.1 53.6-11.8 32.5-16.5 67.9-13.9 105.9 3.4 52.6 15 78.7 43.3 97.8 8.7 5.8 12.6 7.8 27 13.5 5.9 2.4 19.5 5.8 28.5 7.2 4.5 0.7 15.8 2.7 24.8 4.5 9.1 1.6 22.9 3.7 31 4.5 8 0.7 19.4 2.5 25.5 3.7 6 1.4 18.2 3 26.9 3.8 25.5 1.9 39.6 10 51.3 29.5 2.8 4.8 6.9 14.4 9 21.5 8.1 27.7 8.4 32.2 9.3 176.2 1 144.2 1.2 147.5 2.8 155.3 1.8 7.5 6.2 16.6 9.9 20.7 9.3 9.9 29.7 17.3 59.4 21.3 5.9 0.7 11.7 1.8 13.1 2.4 5.1 1.9 36 3.3 58.8 2.6 16.8-0.5 27.4-1.7 35.5-3.7z"/>
</svg>