<svg version="1.2" xmlns="http://www.w3.org/2000/svg" viewBox="0 0 1024 1024" width="1024" height="1024">
	<title>image</title>
	<style>
		.s0 { fill: #000000 } 
	</style>
	<path class="s0" d="m461 809.5c-4.7-0.7-11.4-1.9-15-2.8-3.6-0.8-10.7-2.5-15.8-3.6-12.3-2.7-29.1-8.4-34.1-11.6-8.5-5.3-16.7-14.9-21.9-25.5-4.5-9.5-6-19.9-6.6-48-2-87.3-3.4-110.1-7.3-125.9-2.9-11.7-14.7-37.4-19.7-42.9-4.7-5.3-7.2-6-60.6-17.8-18-3.9-27.6-6.8-37.8-11.4-9.7-4.4-22.2-17.5-27.9-29-4.6-9.4-7.2-16.3-9.7-25.7-0.9-3.5-2.3-9.1-3.2-12.5-0.9-3.5-2.2-8.3-2.9-10.8-2.4-8.3-4.4-19.4-5-27.5-1.4-17.1 0.1-52.6 2.5-63 0.7-2.7 1.9-7.9 2.7-11.5 4-17.7 12.3-36 24.4-53.9 14.5-21.7 33.1-36.4 55.2-43.6 6.2-2.1 12.6-4.3 14.2-5 1.7-0.8 6.4-2.6 10.5-4 19.3-6.9 31.1-9.1 63-12.1 9.1-0.8 19.7-1.9 23.5-2.4 24.7-3.2 164.1-4.7 210-2.2 13.2 0.7 37.1 1.9 53 2.7 16 0.9 33.3 2 38.5 2.6 5.2 0.6 14.9 1.4 21.5 1.9 17.5 1.2 45.6 5.2 54.5 7.7 21.8 6.2 29.1 9.9 36.4 18.2 1.2 1.3 2.6 2.9 3.1 3.5 3.4 3.7 7.1 10.5 10.1 18.6 1.3 3.6 2.8 7.4 3.3 8.5 1 2.3 3.2 11.1 5.6 23 0.9 4.4 2.1 9.9 2.6 12.3 5.2 23.4 6 38.6 2.9 54.7-1.1 6.1-2.5 13.5-3.1 16.5-1.4 8.1-4.8 21.5-7.1 27.9-1 3.1-2.2 6.5-2.5 7.5-0.8 2.4-20 40.2-23.6 46.6-1.5 2.5-3.3 5.9-4.1 7.5-6.7 13.3-14.4 25.3-19.9 30.8-4.8 4.8-16.6 9.1-28.5 10.3-9.3 0.9-33.3 5.6-40.7 7.9-2.2 0.7-6.7 2-10 3-3.3 1-7.8 2.3-10 3-2.2 0.7-8.7 2.7-14.5 4.5-12.6 3.8-27.1 9.7-28.6 11.6-1.3 1.6-2.2 11-3.4 37.1-1.1 22.1-1.8 29.3-7.5 74.3-1.4 11.1-3.2 26-4.2 36.5-0.9 8.6-5.5 20.5-12.2 31.5-1.1 1.9-2.4 4.2-2.8 5-1.6 3.7-37.3 50-41.7 54.3-6 5.8-17.2 11.4-32.1 16-14.7 4.6-24.5 6.5-39.8 7.7-15.8 1.2-22.8 1.1-33.7-0.5zm108.2-74.6c9.3-2.4 20.3-7.6 25.2-12 2.1-1.8 7.1-8.3 11.3-14.6l7.6-11.4 1.8-15.2c1-8.4 2.5-20.1 3.3-26.2 1.5-10.9 3.6-29.3 5.6-47.6 0.5-5.2 1.4-19.6 2-32 0.6-12.3 1.3-23.1 1.6-23.9 0.3-0.8 1-12.5 1.5-26 0.8-22.6 2.4-37 4.7-43.1 5.6-14.2 8.7-18.8 16.6-24.6 11.7-8.7 27-13.8 45.3-15.2 6.1-0.5 12.7-1.4 14.5-2 1.8-0.5 7.6-1.7 12.8-2.6 10.5-1.8 23.4-5.1 41.5-10.5 6.1-1.8 11.3-3.9 17.1-7.1 26.2-14.2 36-27.6 40.6-55.4 2.8-16.5 2.2-21.4-8.6-71.5-3.9-18.3-11-32.6-20.1-40.7-5.4-4.8-9-6.5-19.5-9.7-3-0.9-7.5-2.2-10-3-2.5-0.7-10.1-2.1-17-3-6.9-1-19-2.7-27-3.8-8-1.2-15.6-2.1-17-2.1-1.4 0.1-10.4-0.5-20-1.3-9.6-0.7-29-1.8-43-2.4-14-0.6-38.5-1.8-54.5-2.7-22.9-1.2-40-1.4-81.5-0.9-84.3 1-111.3 2.4-144 7.2-36.5 5.5-46.9 9.4-60.2 23.1-13.5 13.7-21.6 25.1-25.4 35.7-7.9 21.7-11 45.3-9.3 70.6 2.3 35.1 10 52.5 28.9 65.2 5.8 3.9 8.4 5.2 18 9 3.9 1.6 13 3.9 19 4.8 3 0.5 10.5 1.8 16.5 3 6.1 1.1 15.3 2.5 20.7 3 5.3 0.5 12.9 1.7 17 2.5 4 0.9 12.1 2 17.9 2.5 17 1.3 26.4 6.7 34.2 19.7 1.9 3.2 4.6 9.6 6 14.3 5.4 18.5 5.6 21.5 6.2 117.5 0.7 96.1 0.8 98.3 1.9 103.5 1.2 5 4.1 11.1 6.6 13.8 6.2 6.6 19.8 11.5 39.6 14.2 3.9 0.5 7.8 1.2 8.7 1.6 3.4 1.3 24 2.2 39.2 1.7 11.2-0.3 18.3-1.1 23.7-2.4z"/>
</svg>